<svg width="491" height="491" viewBox="0 0 491 491" fill="none" xmlns="http://www.w3.org/2000/svg">
<g clip-path="url(#clip0)">
<path d="M245.333 0C109.839 0 0 109.839 0 245.333C0 380.827 109.839 490.666 245.333 490.666C380.827 490.666 490.666 380.827 490.666 245.333C490.514 109.903 380.764 0.153 245.333 0Z" fill="#FFC107"/>
<path d="M245.333 384C239.442 384 234.666 379.224 234.666 373.333V117.333C234.666 111.442 239.442 106.666 245.333 106.666C251.224 106.666 256 111.442 256 117.333V373.333C256 379.224 251.224 384 245.333 384Z" fill="#FAFAFA"/>
<path d="M335.031 288.812C332.219 312.875 323.312 331.469 308.312 344.594C293.417 357.615 273.573 364.125 248.781 364.125C221.906 364.125 200.344 354.49 184.094 335.219C167.948 315.948 159.875 290.167 159.875 257.875V236C159.875 214.854 163.625 196.26 171.125 180.219C178.729 164.177 189.458 151.885 203.312 143.344C217.167 134.698 233.208 130.375 251.438 130.375C275.604 130.375 294.979 137.146 309.562 150.688C324.146 164.125 332.635 182.771 335.031 206.625H304.875C302.271 188.5 296.594 175.375 287.844 167.25C279.198 159.125 267.062 155.062 251.438 155.062C232.271 155.062 217.219 162.146 206.281 176.312C195.448 190.479 190.031 210.635 190.031 236.781V258.812C190.031 283.5 195.188 303.135 205.5 317.719C215.812 332.302 230.24 339.594 248.781 339.594C265.448 339.594 278.208 335.844 287.062 328.344C296.021 320.74 301.958 307.562 304.875 288.812H335.031Z" fill="white"/>
</g>
<defs>
<clipPath id="clip0">
<rect width="490.667" height="490.667" fill="white"/>
</clipPath>
</defs>
</svg>
